<svg width="40" height="56" viewBox="0 0 40 56" fill="none"
  xmlns="http://www.w3.org/2000/svg">
  <ellipse cx="20" cy="51.5" rx="12" ry="4.5" fill="url(#paint0_radial_4047_295397)" fill-opacity="0.6"/>
  <mask id="path-2-outside-1_4047_295397" maskUnits="userSpaceOnUse" x="0" y="0" width="40" height="53" fill="black">
    <rect fill="white" width="40" height="53"/>
    <path fill-rule="evenodd" clip-rule="evenodd" d="M20.0294 2C15.0507 2 10.5434 3.96726 7.28069 7.1479C4.01801 10.3285 2 14.7225 2 19.576C2 24.5733 5.47222 30.7193 12.0292 38.1002C15.4028 41.8979 16.786 47.4389 19.3788 50.5325C19.7214 50.9412 20.3342 50.9412 20.677 50.5327C23.2818 47.4277 24.7325 41.8097 28.0285 38.1002C34.5863 30.7198 38.0588 24.5735 38.0588 19.576C38.0588 14.7225 36.0408 10.3285 32.7781 7.1479C29.5154 3.96726 25.0081 2 20.0294 2Z"/>
  </mask>
  <path fill-rule="evenodd" clip-rule="evenodd" d="M20.0294 2C15.0507 2 10.5434 3.96726 7.28069 7.1479C4.01801 10.3285 2 14.7225 2 19.576C2 24.5733 5.47222 30.7193 12.0292 38.1002C15.4028 41.8979 16.786 47.4389 19.3788 50.5325C19.7214 50.9412 20.3342 50.9412 20.677 50.5327C23.2818 47.4277 24.7325 41.8097 28.0285 38.1002C34.5863 30.7198 38.0588 24.5735 38.0588 19.576C38.0588 14.7225 36.0408 10.3285 32.7781 7.1479C29.5154 3.96726 25.0081 2 20.0294 2Z" fill="#1F1F1F"/>
  <path d="M32.7781 7.1479L33.7554 6.14543L32.7781 7.1479ZM12.0292 38.1002L10.9825 39.03L12.0292 38.1002ZM28.0285 38.1002L26.9819 37.1703L28.0285 38.1002ZM19.3788 50.5325L18.3059 51.4318L19.3788 50.5325ZM20.0294 0.6C14.6761 0.6 9.82065 2.71664 6.30342 6.14543L8.25795 8.15037C11.2661 5.21789 15.4254 3.4 20.0294 3.4V0.6ZM6.30342 6.14543C2.78557 9.57482 0.6 14.3244 0.6 19.576H3.4C3.4 15.1206 5.25045 11.0822 8.25795 8.15037L6.30342 6.14543ZM39.4588 19.576C39.4588 14.3245 37.2732 9.57482 33.7554 6.14543L31.8008 8.15037C34.8083 11.0822 36.6588 15.1206 36.6588 19.576H39.4588ZM33.7554 6.14543C30.2381 2.71664 25.3827 0.6 20.0294 0.6V3.4C24.6334 3.4 28.7927 5.21789 31.8008 8.15037L33.7554 6.14543ZM0.6 19.576C0.6 22.3925 1.57511 25.4141 3.32761 28.6163C5.08361 31.825 7.66378 35.2942 10.9825 39.03L13.0758 37.1704C9.8376 33.5253 7.40319 30.2311 5.78384 27.2721C4.161 24.3068 3.4 21.7568 3.4 19.576H0.6ZM10.9825 39.03C12.5256 40.767 13.6418 42.9371 14.7376 45.1922C15.792 47.3624 16.8705 49.7193 18.3059 51.4318L20.4518 49.6332C19.2942 48.2521 18.3848 46.2916 17.256 43.9685C16.1685 41.7304 14.9064 39.2311 13.0758 37.1704L10.9825 39.03ZM21.7495 51.4325C23.19 49.7155 24.2876 47.3394 25.3519 45.1568C26.4588 42.887 27.5716 40.7222 29.0751 39.0301L26.9819 37.1703C25.1894 39.1877 23.9289 41.6867 22.8352 43.9295C21.699 46.2595 20.7688 48.245 19.6044 49.6329L21.7495 51.4325ZM29.0751 39.0301C32.3942 35.2946 34.9747 31.8253 36.7309 28.6167C38.4836 25.4144 39.4588 22.3926 39.4588 19.576H36.6588C36.6588 21.7569 35.8977 24.307 34.2747 27.2723C32.6552 30.2313 30.2205 33.5254 26.9819 37.1703L29.0751 39.0301ZM18.3059 51.4318C19.208 52.5082 20.8473 52.5079 21.7495 51.4325L19.6044 49.6329C19.8211 49.3746 20.2347 49.3742 20.4518 49.6332L18.3059 51.4318Z" fill="white" mask="url(#path-2-outside-1_4047_295397)"/>
  <path fill-rule="evenodd" clip-rule="evenodd" d="M24.9173 18.3307C25.3472 17.9131 25.8834 17.6749 26.2414 17.6749C26.6057 17.6749 26.7491 17.801 26.8168 17.801C26.8764 17.801 26.9285 17.7152 27.0213 17.6881C27.054 17.6815 27.0487 17.6686 27.0801 17.6686C27.1209 17.6686 27.2003 17.7412 27.2003 17.7811C27.2003 17.8141 27.1865 17.8141 27.1808 17.8412C27.1603 17.9334 27.0801 17.9865 27.0801 18.0459C27.0801 18.1063 27.2656 18.2183 27.2656 18.6675C27.2656 19.0974 26.9881 19.7532 26.5975 20.2233C26.3595 20.5081 26.1553 20.6333 26.0751 20.7124C26.029 20.7582 26.0096 20.8459 25.9561 20.8923C25.8966 20.9438 25.87 20.8984 25.8501 20.9372C25.8305 20.9775 25.7711 20.9907 25.7311 20.9775C25.6908 20.9645 25.7242 20.9972 25.6851 21.0174C25.6459 21.0379 25.6377 21.0306 25.5926 21.0433C25.546 21.0565 25.5718 21.0828 25.4466 21.1093C25.4854 21.129 25.6908 21.1035 25.738 21.1035C25.7842 21.1035 25.9227 21.0629 25.9688 21.0629C26.0156 21.0629 26.0156 21.0503 26.0617 21.0503C26.1085 21.0503 26.1007 21.0565 26.1286 21.0565C26.1553 21.0565 26.2414 21.0174 26.3004 21.0565C26.3204 21.0379 26.4129 21.0433 26.4383 21.0433C26.4653 21.0433 26.4717 21.0701 26.505 21.0767C26.5384 21.0828 26.5975 21.0767 26.644 21.0895C26.657 21.096 26.6705 21.096 26.6966 21.1226C26.7899 21.117 26.869 21.1698 26.889 21.1957C26.9285 21.242 26.9562 21.2085 26.9757 21.2291C26.9945 21.2487 27.0606 21.2695 27.0747 21.3082C27.0944 21.3674 27.1408 21.3674 27.1538 21.3752C27.1669 21.381 27.1808 21.4011 27.1937 21.414C27.2064 21.434 27.2533 21.447 27.2391 21.5C27.3117 21.5 27.3723 21.5862 27.3723 21.6325C27.3723 21.6786 27.3913 21.6991 27.4187 21.7053C27.4449 21.7124 27.4914 21.8173 27.4785 21.8642C27.4645 21.9034 27.4841 21.8976 27.4841 21.9236C27.4841 22.3345 26.7101 22.6653 25.6712 22.6653C25.2739 22.6653 25.1158 22.5058 25.0961 22.4467C25.0831 22.4139 25.0831 22.3996 25.0831 22.3743C25.0696 22.3541 25.0288 22.2944 25.0616 22.2352C25.0616 22.2352 25.0424 22.2015 25.0424 22.1551C25.049 22.0622 25.0831 22.0697 25.0831 22.0361C25.0758 21.937 25.0961 21.9302 25.1085 21.8642C25.1222 21.8117 25.1288 21.8515 25.1545 21.8046C25.1809 21.7588 25.1809 21.7914 25.1809 21.7315C25.1809 21.6716 25.1955 21.6659 25.2539 21.6461C25.2539 21.6461 25.2685 21.5596 25.3334 21.5527C25.3611 21.5527 25.3472 21.5196 25.3611 21.487C25.3737 21.4542 25.4125 21.4798 25.4263 21.447C25.4331 21.4272 25.5 21.3674 25.5718 21.3542C25.3138 21.3472 25.1617 21.414 25.049 21.4072C24.9701 21.4011 24.9434 21.3877 24.6055 21.4608C24.1894 21.5527 23.428 21.9434 23.051 22.1755C22.5808 22.4654 21.3573 23.3192 20.9588 24.0611C20.8932 24.1746 20.755 24.8753 20.588 25.5031C20.3972 26.2257 20.1653 26.921 20.1521 27.0455C20.2579 26.9001 20.3702 26.7881 20.4893 26.7881C20.7021 26.7881 20.6482 27.0455 20.6751 27.0659C20.7085 27.0858 20.7085 27.0124 20.7085 26.9465C20.7085 26.8807 20.722 26.728 20.8207 26.5691C20.9331 26.39 21.1323 26.2052 21.3761 26.0145C21.6138 25.8281 21.7739 25.3455 21.8994 24.9878C22.0249 24.63 22.2568 24.2343 22.5746 24.2343C22.7997 24.2343 22.9321 24.4319 22.9781 24.5118C23.0311 24.6102 23.0964 24.8222 23.1759 24.809C23.3614 24.7754 23.8052 23.7898 24.1828 23.3994C24.3617 23.2146 24.5537 22.9899 24.892 22.9899C25.4854 22.9899 25.3998 23.8231 25.6377 23.8231C25.7964 23.8231 25.903 23.5846 25.9753 23.4863C26.1286 23.2666 26.6106 22.8766 26.8967 22.8766C27.1734 22.8766 27.2199 23.1018 27.2199 23.3006C27.2199 23.46 27.1808 23.6049 27.3393 23.6049C27.4383 23.6049 27.7292 23.089 28.094 23.089C28.2391 23.089 28.3915 23.1812 28.3915 23.3662C28.3915 23.5387 28.365 23.6301 28.365 23.684C28.365 23.7374 28.4112 23.7704 28.4776 23.7704C28.5576 23.7704 28.6365 23.7494 28.7033 23.7494C28.861 23.7494 29 23.8491 29 24.0611C29 24.306 28.8684 24.4777 28.7094 24.6642C28.6434 24.7363 28.6235 24.7959 28.6761 24.8819C28.7623 25.0208 28.901 25.054 28.901 25.173C28.901 25.4642 28.7094 25.5637 28.5371 25.6033C28.3712 25.6436 28.0476 25.6556 28.0476 25.8803C28.0476 26.0737 28.3064 26.2052 28.3064 26.5432C28.3064 26.6888 28.2519 26.8141 28.0537 26.921C27.8357 27.0393 27.4052 27.0579 27.3393 27.0579C27.1408 27.0579 26.869 27.0195 26.7101 27.0195C26.5512 27.0195 26.4064 27.0265 26.4064 27.1183C26.4064 27.297 26.7707 27.4295 26.7707 27.7998C26.7707 28.1841 26.181 28.2504 25.8363 28.2504C25.4263 28.2504 25.1085 28.1775 24.7652 28.0578C24.5866 27.9985 24.2285 27.8133 23.9636 27.8133C23.8052 27.8133 23.7259 27.8659 23.7259 27.9326C23.7259 28.0451 24.0032 28.2504 24.0032 28.5284C24.0032 28.7659 23.8052 28.859 23.62 28.859C22.9512 28.859 22.5078 28.071 21.5416 28.071C21.2975 28.071 21.198 28.1709 20.9054 28.1709C20.5358 28.1709 20.4232 28.0451 20.4305 27.8265C20.1925 27.9326 19.9004 28.1709 19.9004 28.488C19.9004 28.7399 19.9253 28.8705 20.0187 28.9697C20.1108 29.0694 20.23 29.1021 20.252 29.1856C20.3186 29.2507 20.2215 29.4281 20.2683 29.7447C20.3043 29.9885 20.3787 30.3142 20.4155 30.3956C20.4491 30.4697 20.1812 30.4988 20.1057 30.4995C19.9836 30.5004 19.569 30.5095 19.5553 30.3948C19.5175 30.0776 19.2456 28.9059 19.1471 28.6402C19.0144 28.29 18.9552 28.3229 18.7364 28.1513C18.5499 27.9926 17.6581 27.3892 17.1808 27.3892C17.0549 27.3892 17.1217 27.3706 17.0215 27.3706C16.9555 27.3706 17.0088 27.357 16.9689 27.357C16.9298 27.357 16.9367 27.3892 16.8707 27.3892C16.8304 27.3892 16.8568 27.5023 16.8304 27.5023C16.7904 27.5023 16.8042 27.5427 16.7977 27.5881C16.7904 27.6349 16.7504 27.6622 16.7435 27.7015C16.7383 27.7407 16.6906 27.7015 16.6906 27.7474C16.6906 27.7939 16.7117 27.7939 16.6906 27.8207C16.6523 27.8737 16.6572 27.8997 16.6253 27.8997C16.5923 27.9865 16.6188 27.9791 16.5792 28.0125C16.5392 28.0451 16.4861 28.0451 16.4861 28.098C16.4861 28.1178 16.4729 28.1307 16.4664 28.1513C16.4399 28.1513 16.4134 28.1775 16.3999 28.1981C16.3412 28.2772 16.3473 28.2698 16.3144 28.2698C16.2219 28.2698 16.2545 28.3167 16.122 28.3167C15.6787 28.3167 15.1488 27.5427 15.1488 26.9334C15.1488 26.5095 15.2095 26.5156 15.2229 26.4299C15.2353 26.3435 15.302 26.259 15.3543 26.2513C15.4075 26.245 15.3872 26.2257 15.4472 26.2331C15.4409 26.1994 15.4944 26.1924 15.5197 26.1789C15.5587 26.1583 15.5857 26.1583 15.639 26.1924C15.6583 26.1789 15.6728 26.1583 15.7123 26.1583C15.7515 26.1583 15.7654 26.1994 15.7903 26.1994C15.8376 26.1994 15.8245 26.1858 15.864 26.1858C15.9032 26.1858 15.9239 26.1924 15.97 26.2195C15.9896 26.2121 16.003 26.1994 16.0298 26.2052C16.0499 26.2121 16.0891 26.2257 16.0951 26.2513C16.122 26.2513 16.1547 26.245 16.208 26.2849C16.2276 26.2979 16.248 26.3249 16.2545 26.3435C16.2945 26.3512 16.2744 26.3191 16.3343 26.3512C16.3934 26.3845 16.3934 26.39 16.4265 26.4366C16.4595 26.4827 16.4526 26.443 16.5002 26.4707C16.5728 26.5156 16.5392 26.5432 16.5728 26.5691C16.5923 26.5691 16.5988 26.5691 16.6253 26.5884C16.6572 26.6159 16.6318 26.6357 16.6572 26.649C16.6717 26.6559 16.6848 26.649 16.6906 26.6953C16.6984 26.728 16.7435 26.7485 16.7847 26.8012C16.8101 26.8341 16.8767 26.9001 16.8967 26.9001C16.9228 26.9001 16.9168 26.8741 16.8767 26.8206C16.8238 26.7485 16.8238 26.781 16.7847 26.6749C16.7708 26.6424 16.7383 26.6559 16.7383 26.602C16.7383 26.5629 16.6791 26.5156 16.6791 26.4827C16.6791 26.4508 16.6791 26.4366 16.6572 26.4234C16.6046 26.3313 16.6318 26.3313 16.6318 26.2979C16.585 26.2513 16.5923 26.2195 16.5923 26.1924C16.5923 26.1652 16.5658 26.1789 16.5658 26.1327C16.5658 26.0928 16.5728 26.1059 16.5728 26.0602C16.5728 26.0145 16.5455 26.027 16.5392 25.9873C16.5316 25.9479 16.5525 25.9537 16.5525 25.9079C16.5392 25.8149 16.5589 25.8281 16.5589 25.7684C16.5589 25.7494 16.5728 25.7227 16.5792 25.7033C16.585 25.6756 16.5589 25.6756 16.5792 25.6485C16.6457 25.5505 16.7574 25.3843 17.3002 25.3843C17.9755 25.3843 18.5836 25.5505 18.8425 25.8947C18.8616 25.9214 18.8884 25.9214 18.8953 25.9796C18.9019 26.027 18.9211 26.0338 18.9211 26.1059C18.9211 26.1459 18.8953 26.1858 18.8884 26.2331C18.8749 26.3116 18.9019 26.3974 18.8554 26.3974C18.8152 26.3974 18.8425 26.5361 18.8021 26.5361C18.7751 26.5361 18.7967 26.5831 18.7364 26.5831C18.6897 26.5831 18.7364 26.7153 18.6701 26.7346C18.6505 26.7412 18.6036 26.7222 18.5909 26.7881C18.5836 26.8141 18.5573 26.8807 18.511 26.8873C18.4451 26.9001 18.4723 26.9001 18.4382 26.9272C18.3526 27.0063 18.4124 27.0195 18.3848 27.0455C18.3194 27.1117 18.3054 26.9726 18.2588 27.0265C18.2396 27.0528 18.2273 27.0528 18.2273 27.0792C18.2273 27.1385 18.2136 27.1183 18.1671 27.1051C18.1146 27.0858 18.0681 27.1524 18.0876 27.1726C18.035 27.1726 18.007 27.1787 17.9878 27.1726C17.9555 27.1585 17.9148 27.1726 17.9148 27.2063C17.8827 27.257 17.89 27.2063 17.8569 27.2063C17.8231 27.2063 17.7901 27.2118 17.7901 27.2118C17.8039 27.252 18.3054 27.4962 18.4323 27.5551C18.7296 27.7214 18.9552 27.8997 19.1004 27.8997C19.2992 27.8997 19.8343 26.5629 19.8018 25.9406C19.7898 25.7494 19.7822 25.7033 19.7898 25.6756C19.8018 25.616 19.6632 25.6231 19.6632 25.3583C19.6632 25.2983 19.6759 25.173 19.7231 25.1133C19.7487 25.0797 19.8222 25.041 19.8682 25.041C19.9146 25.041 20.0336 25.1332 20.0462 25.1866C20.0996 25.1067 20.2445 24.4448 20.2445 24.2398C20.2445 24.1677 20.2184 24.0742 20.1925 24.0479C20.1653 24.0211 19.9281 23.9759 19.7231 23.71C19.7092 23.6906 19.682 23.677 19.6686 23.6906C19.6574 23.7033 19.6686 23.71 19.6686 23.7569C19.6686 23.8231 19.563 24.0022 19.3853 24.0022C19.0873 24.0022 19.0082 23.8695 18.6774 23.8695C18.5168 23.8695 18.4055 23.9286 18.3194 24.0022C18.1598 24.1339 17.8827 24.2602 17.7575 24.2602C17.453 24.2602 17.6047 23.8367 17.4192 23.8367C17.2798 23.8367 17.2798 24.0611 17.2273 24.2064C17.1413 24.4448 16.5923 25.0937 16.2879 25.0937C15.9896 25.0937 16.1025 24.5711 15.9313 24.5711C15.8245 24.5711 15.7581 24.7239 15.7251 24.8293C15.5926 25.2664 15.4138 25.5827 15.2353 25.7881C15.0567 25.9938 14.8192 26.3644 14.5469 26.3644C14.2821 26.3644 14.3487 25.9479 14.2229 25.8482C14.1633 25.8017 14.0451 25.7494 13.9776 25.875C13.8393 26.1459 13.687 26.6687 13.2961 26.6687C13.0512 26.6687 12.9987 26.4901 12.9925 26.3644C12.9848 26.2389 12.9848 26.2121 12.9648 26.1392C12.9456 26.0668 12.9261 25.9938 12.8466 25.9938C12.7929 25.9938 12.7334 26.027 12.6811 26.1583C12.6274 26.292 12.4428 26.5765 12.1052 26.5765C11.8067 26.5765 11.7014 26.4574 11.696 26.3644C11.6883 26.245 11.7206 26.0737 11.4891 26.1327C11.2311 26.1994 11.0794 25.8149 11.0794 25.6633C11.0794 25.3843 11.2717 25.1866 11.2717 25.0874C11.2717 24.9688 11 24.9025 11 24.6102C11 23.9557 11.696 24.1281 11.696 23.8231C11.696 23.5452 11.205 23.4195 11.205 23.1285C11.205 22.5398 11.9792 22.434 12.1256 22.434C12.2711 22.434 12.4369 22.4801 12.5148 22.4801C12.5949 22.4801 12.8071 22.441 12.8071 22.3476C12.8071 22.255 12.7207 22.1224 12.6415 22.0172C12.5618 21.9106 12.4561 21.8117 12.4561 21.6856C12.4561 21.2747 12.8862 21.1226 13.1894 21.1226C13.7864 21.1226 14.1971 21.242 14.355 21.3147C14.5211 21.3877 14.6652 21.5135 14.8125 21.5135C14.8847 21.5135 14.9377 21.487 14.9377 21.4201C14.9377 21.2825 14.7063 21.1093 14.7063 20.8459C14.7063 20.6399 14.8912 20.4217 15.2095 20.4217C15.5269 20.4217 15.983 20.607 16.2219 20.7527C16.4595 20.8984 16.8707 21.2949 17.0627 21.2949C17.2676 21.2949 17.0349 20.6666 17.4917 20.6666C17.8827 20.6666 18.3721 21.0895 18.6969 21.6991C18.7557 21.8117 18.928 22.056 19.0731 22.1357C19.3127 22.2673 19.5956 22.7045 19.637 23.0289C19.6494 23.1285 19.715 23.1875 19.7353 23.1875C19.715 23.089 19.7026 22.8902 19.8343 22.8637C19.9611 22.8367 20.1653 22.996 20.2184 23.0689C20.2579 22.9899 20.1521 22.7045 20.1196 22.6255C20.0932 22.5596 19.9074 21.937 19.8617 21.8247C19.8143 21.7124 19.6102 21.2155 19.5434 21.0895C19.432 20.8709 19.2002 20.7855 19.0873 20.7268C18.9211 20.6333 18.7433 20.4152 18.6969 20.3754C18.6505 20.3357 18.6505 20.3423 18.625 20.3423C18.6036 20.3423 18.5645 20.4944 18.3395 20.4944C18.1076 20.4944 17.8301 20.1374 17.5517 19.9845C17.155 19.7658 16.6318 19.6993 16.4342 19.6737C16.2945 19.6539 15.831 19.5543 15.613 19.4151C15.4674 19.3225 15.4199 19.1908 15.4199 19.0846C15.4199 18.8594 15.6991 18.7279 15.7654 18.7014C15.831 18.6753 15.9032 18.6346 15.9032 18.588C15.9032 18.5222 15.7846 18.4694 15.6991 18.4156C15.5857 18.3501 15.4138 18.3307 15.1822 18.3234C14.9511 18.317 14.5795 18.2578 14.3688 18.1644C14.1564 18.0725 13.6996 17.748 13.6996 17.4768C13.6996 17.2845 13.7991 17.1455 13.9584 17.066C14.1173 16.987 14.3748 16.9071 14.3748 16.7818C14.3748 16.6957 14.2821 16.6759 14.2167 16.6296C14.143 16.5775 13.7468 16.5037 13.6141 16.4775C13.4162 16.4376 12.6013 16.2793 12.6013 15.7766C12.6013 15.2998 13.3165 15.2803 13.3165 15.1806C13.3165 15.0747 13.1041 15.0079 12.8795 14.8696C12.6144 14.7038 12.3303 14.4713 12.3303 14.2466C12.3303 13.7972 12.9714 13.9296 12.9714 13.764C12.9714 13.7308 12.9314 13.6651 12.9065 13.6387L12.7076 13.4464C12.6415 13.3792 12.5686 13.2418 12.5686 13.1824C12.5686 12.9969 12.7613 13.0027 12.7613 12.9167C12.7613 12.8646 12.7406 12.851 12.7406 12.7984C12.7406 12.6782 12.8727 12.5468 13.1312 12.6123C13.2171 12.6323 13.2696 12.6391 13.3495 12.6263C13.4286 12.6123 13.4743 12.5 13.6408 12.5C13.8654 12.5 13.9649 12.7385 14.0179 12.8046C14.0643 12.8646 14.0839 12.9167 14.1299 12.9167C14.1971 12.9167 14.2095 12.7445 14.2758 12.6588C14.3231 12.5992 14.4552 12.5 14.5665 12.5C14.9239 12.5 15.2095 12.7984 15.3543 13.1222C15.3814 13.188 15.4275 13.2739 15.4744 13.2739C15.613 13.2739 15.7386 12.6855 16.1627 12.6855C16.4265 12.6855 16.5455 12.779 16.6457 12.8646C16.8042 13.01 16.8304 13.3143 16.9032 13.5258C16.9689 13.7181 16.9298 14.2604 16.9298 14.3731C16.9298 14.4856 16.9555 14.7894 17.0492 14.7894C17.22 14.7894 17.3789 14.36 17.7835 14.36C17.9617 14.36 18.2331 14.6048 18.2331 15.1681C18.2331 15.7812 17.9617 15.9877 17.9617 16.4314C17.9617 16.5168 17.9755 16.6098 18.0545 16.6098C18.1349 16.6098 18.1805 16.4775 18.2331 16.4184C18.3054 16.3386 18.4382 16.2851 18.625 16.2851C18.8425 16.2851 18.9415 16.4905 18.9415 16.7618C18.9415 16.954 18.829 17.7083 18.829 18.0915C18.829 18.4758 18.9611 18.6753 18.9611 19.1315C18.9611 19.489 18.7894 19.7136 18.7894 19.8713C18.7894 19.9392 18.8749 20.0566 18.9415 20.031C18.8689 19.9392 18.9415 19.6993 19.0009 19.6671C19.0469 19.6407 19.1268 19.6602 19.1671 19.6737C19.1207 19.37 19.2396 19.0846 19.3458 19.0656C19.4973 19.0318 19.7822 19.3163 19.8079 19.3632C19.8474 19.3225 19.8877 19.284 19.9476 19.284C20.0336 19.284 20.1258 19.3493 20.2048 19.4419C20.2251 19.4087 20.2308 19.3823 20.2308 19.3364C20.2308 19.2632 20.0859 18.8857 20.0859 18.5679C20.0859 18.1846 20.2657 17.8265 20.2657 17.5289C20.2657 16.9592 20.0859 16.6166 20.0859 16.3455C20.0859 15.7812 20.2579 15.4785 20.523 15.4785C20.7807 15.4785 20.9258 15.7355 21.092 15.7355C21.2113 15.7355 21.284 15.5049 21.3029 15.3659C21.396 14.7173 21.443 13.3212 22.1577 12.9837C22.3094 12.9101 22.4879 12.9627 22.6137 13.0958C22.866 13.353 22.9124 13.658 23.1033 13.658C23.2361 13.658 23.4143 13.3274 23.4814 13.1824C23.5802 12.9561 23.931 12.586 24.2884 12.586C24.8969 12.586 24.6792 13.248 24.9763 13.248C25.288 13.248 25.526 12.6782 26.034 12.6782C26.181 12.6782 26.346 12.8306 26.346 13.016C26.346 13.1354 26.3331 13.2275 26.3331 13.2875C26.3331 13.3468 26.3331 13.4204 26.3995 13.4204C26.4653 13.4204 26.6648 13.2081 26.809 13.2081C27.0682 13.2081 27.008 13.4597 27.1273 13.5393C27.1937 13.5857 27.451 13.6051 27.451 13.8702C27.451 14.2073 27.1273 14.1999 27.1273 14.36C27.1273 14.4713 27.4052 14.5522 27.4052 14.7365C27.4052 14.9355 27.2064 15.1538 27.0413 15.1731C26.9158 15.1874 26.4855 15.1731 26.4855 15.3588C26.4855 15.3983 26.5918 15.4579 26.6835 15.5378C26.7969 15.6366 26.922 15.7496 26.922 15.9215C26.922 16.1594 26.657 16.3909 25.8363 16.3909C25.7042 16.3909 25.6654 16.3779 25.526 16.3779C25.4669 16.3779 25.3536 16.385 25.249 16.4114C25.1027 16.4511 24.9629 16.5037 24.9629 16.5775C24.9629 16.8147 25.4263 16.8083 25.4263 17.0999C25.4263 17.3175 25.2739 17.4629 25.0758 17.5757C24.9434 17.6551 24.4277 17.854 24.1234 17.854C23.508 17.854 23.428 17.7811 23.2503 17.7811C23.0964 17.7811 22.9781 17.8336 22.9781 17.9261C22.9781 18.0195 23.0707 18.0726 23.2092 18.1514C23.296 18.1978 23.6472 18.317 23.6472 18.6093C23.6472 18.9129 23.1428 19.0779 22.9255 19.1174C22.3623 19.231 22.0448 19.3892 21.661 19.7597C21.4625 19.952 21.0451 20.4614 20.628 20.2628C20.4495 20.5207 20.1852 20.7788 20.1521 20.9972C20.0932 21.3752 20.6551 23.141 20.8997 23.141C21.0516 23.141 21.2709 22.9425 21.5885 22.7306C21.8 22.5921 22.018 22.441 22.2705 22.2673C23.3687 21.5196 24.2757 21.136 24.2757 20.9907C24.2757 20.8782 24.1828 20.7788 24.1487 20.7193C24.1234 20.6666 24.0891 20.6468 24.0634 20.6002C24.0359 20.5539 24.0434 20.5401 24.0239 20.5007C24.0032 20.4614 23.9778 20.4345 23.9636 20.3818C23.9517 20.3357 23.9517 20.3286 23.9568 20.2899C23.9173 20.2768 23.9173 20.2434 23.9173 20.2023C23.9173 20.164 23.9237 20.164 23.9237 20.1244C23.9237 20.0837 23.8975 20.1103 23.8975 20.051C23.8975 19.9707 23.9237 19.9775 23.9237 19.932C23.9237 19.9187 23.8773 19.8925 23.8773 19.8592C23.8773 19.7999 23.9237 19.7866 23.9237 19.7467C23.9237 19.7068 23.891 19.7202 23.891 19.6806C23.891 19.5476 23.931 19.5675 23.9444 19.5338C23.9375 19.5082 23.9517 19.422 23.9975 19.3892C24.0434 19.3563 24.0964 19.29 24.1365 19.2965C24.1365 19.2965 24.1555 19.2437 24.2094 19.2505C24.3952 18.9254 24.6389 18.6019 24.9173 18.3307Z" fill="white"/>
  <defs>
    <radialGradient id="paint0_radial_4047_295397" cx="0" cy="0" r="1" gradientUnits="userSpaceOnUse" gradientTransform="translate(20 51.5) rotate(90) scale(4.5 12)">
      <stop/>
      <stop offset="1" stop-opacity="0"/>
    </radialGradient>
  </defs>
</svg>
